<svg xmlns="http://www.w3.org/2000/svg" viewBox="150 150 460 242" width="100%" height="100%">
            <defs>
                <filter id="glow" x="-20%" y="-500%" width="140%" height="1100%">
                    <feGaussianBlur stdDeviation="6" result="blur" />
                    <feMerge>
                        <feMergeNode in="blur" />
                        <feMergeNode in="blur" />
                        <feMergeNode in="SourceGraphic" />
                    </feMerge>
                </filter>

                <mask id="sliceMask">
                    <rect width="800" height="600" fill="white"/>
                    <line x1="80" y1="320" x2="600" y2="320" stroke="black" stroke-width="32" stroke-linecap="round"/>
                </mask>
            </defs>

            <g mask="url(#sliceMask)">
                <path d="M 240 380 
                         A 60 60 0 0 1 240 260 
                         A 120 120 0 0 1 440 200 
                         A 90 90 0 0 1 560 280 
                         A 60 60 0 0 1 540 380 Z" 
                      fill="#1e293b" stroke="#94a3b8" stroke-width="16" stroke-linejoin="round"/>

                <path d="M 350 260 V 200 A 40 40 0 0 1 430 200 V 260" fill="none" stroke="#f8fafc" stroke-width="16"/>
                <rect x="330" y="260" width="120" height="90" rx="12" fill="#f8fafc" />
                <circle cx="390" cy="295" r="10" fill="#0b0d12"/>
                <path d="M 385 295 L 395 295 L 390 320 Z" fill="#0b0d12"/>
            </g>

            <line x1="160" y1="320" x2="576" y2="320" stroke="#ff3300" stroke-width="20" stroke-linecap="round" filter="url(#glow)"/>
            <line x1="160" y1="320" x2="576" y2="320" stroke="#ff3300" stroke-width="8" stroke-linecap="round"/>

            <g transform="translate(576, 320)">
                <rect x="-4" y="-120" width="8" height="100" fill="#ff3300"/>
                <rect x="-12" y="-116" width="24" height="10" rx="2" fill="#4a5568"/>
                <rect x="-20" y="-100" width="40" height="8" rx="2" fill="#a0aec0"/>
                <rect x="-20" y="-88" width="40" height="8" rx="2" fill="#a0aec0"/>
                <rect x="-20" y="-76" width="40" height="8" rx="2" fill="#a0aec0"/>
                <rect x="-20" y="-64" width="40" height="8" rx="2" fill="#a0aec0"/>
                <rect x="-8" y="-56" width="16" height="12" fill="#718096" stroke="#0b0d12" stroke-width="2"/>
                <rect x="-24" y="-44" width="48" height="24" rx="4" fill="#cbd5e0" stroke="#0b0d12" stroke-width="2"/>
                <polygon points="-8,0 8,0 14,-20 -14,-20" fill="#e2e8f0" stroke="#0b0d12" stroke-width="2"/>
            </g>
        </svg>
